<mxfile host="app.diagrams.net" agent="Mozilla/5.0 (Windows NT 10.0; Win64; x64) AppleWebKit/537.36 (KHTML, like Gecko) Chrome/132.0.0.0 Safari/537.36" version="26.0.14">
  <diagram name="Page-1" id="JLshKwJYGIaQ4de5sj4C">
    <mxGraphModel dx="1434" dy="746" grid="1" gridSize="10" guides="1" tooltips="1" connect="1" arrows="1" fold="1" page="1" pageScale="1" pageWidth="850" pageHeight="1100" math="0" shadow="0">
      <root>
        <mxCell id="0" />
        <mxCell id="1" parent="0" />
        <mxCell id="phcHC3TYEVuPcjH7p6bI-1" value="Адміністратор" style="shape=umlActor;verticalLabelPosition=bottom;verticalAlign=top;html=1;outlineConnect=0;" parent="1" vertex="1">
          <mxGeometry x="160" y="300" width="30" height="60" as="geometry" />
        </mxCell>
        <mxCell id="phcHC3TYEVuPcjH7p6bI-3" value="Організатор" style="shape=umlActor;verticalLabelPosition=bottom;verticalAlign=top;html=1;outlineConnect=0;" parent="1" vertex="1">
          <mxGeometry x="160" y="400" width="30" height="60" as="geometry" />
        </mxCell>
        <mxCell id="phcHC3TYEVuPcjH7p6bI-4" value="Відвідувач" style="shape=umlActor;verticalLabelPosition=bottom;verticalAlign=top;html=1;outlineConnect=0;" parent="1" vertex="1">
          <mxGeometry x="160" y="500" width="30" height="60" as="geometry" />
        </mxCell>
        <mxCell id="phcHC3TYEVuPcjH7p6bI-5" value="" style="endArrow=block;endSize=16;endFill=0;html=1;rounded=0;" parent="1" edge="1">
          <mxGeometry width="160" relative="1" as="geometry">
            <mxPoint x="180" y="429.9999999999999" as="sourcePoint" />
            <mxPoint x="240" y="450" as="targetPoint" />
          </mxGeometry>
        </mxCell>
        <mxCell id="phcHC3TYEVuPcjH7p6bI-6" value="" style="endArrow=block;endSize=16;endFill=0;html=1;rounded=0;" parent="1" source="phcHC3TYEVuPcjH7p6bI-4" edge="1">
          <mxGeometry width="160" relative="1" as="geometry">
            <mxPoint x="200" y="446" as="sourcePoint" />
            <mxPoint x="240" y="500" as="targetPoint" />
          </mxGeometry>
        </mxCell>
        <mxCell id="phcHC3TYEVuPcjH7p6bI-7" value="Користувач" style="shape=umlActor;verticalLabelPosition=bottom;verticalAlign=top;html=1;outlineConnect=0;" parent="1" vertex="1">
          <mxGeometry x="260" y="440" width="30" height="60" as="geometry" />
        </mxCell>
        <mxCell id="phcHC3TYEVuPcjH7p6bI-8" value="" style="shape=umlFrame;whiteSpace=wrap;html=1;pointerEvents=0;" parent="1" vertex="1">
          <mxGeometry x="320" y="200" width="460" height="330" as="geometry" />
        </mxCell>
        <mxCell id="phcHC3TYEVuPcjH7p6bI-9" value="Створення оголошення про захід" style="ellipse;whiteSpace=wrap;html=1;" parent="1" vertex="1">
          <mxGeometry x="380" y="240" width="190" height="50" as="geometry" />
        </mxCell>
        <mxCell id="phcHC3TYEVuPcjH7p6bI-10" value="" style="endArrow=none;html=1;rounded=0;" parent="1" edge="1">
          <mxGeometry width="50" height="50" relative="1" as="geometry">
            <mxPoint x="190" y="330" as="sourcePoint" />
            <mxPoint x="380" y="280" as="targetPoint" />
          </mxGeometry>
        </mxCell>
        <mxCell id="phcHC3TYEVuPcjH7p6bI-11" value="" style="endArrow=none;html=1;rounded=0;" parent="1" edge="1">
          <mxGeometry width="50" height="50" relative="1" as="geometry">
            <mxPoint x="200" y="410" as="sourcePoint" />
            <mxPoint x="390" y="290" as="targetPoint" />
          </mxGeometry>
        </mxCell>
        <mxCell id="phcHC3TYEVuPcjH7p6bI-12" value="Ознайомлення з заходами" style="ellipse;whiteSpace=wrap;html=1;" parent="1" vertex="1">
          <mxGeometry x="380" y="300" width="190" height="50" as="geometry" />
        </mxCell>
        <mxCell id="phcHC3TYEVuPcjH7p6bI-17" value="" style="endArrow=none;html=1;rounded=0;" parent="1" edge="1">
          <mxGeometry width="50" height="50" relative="1" as="geometry">
            <mxPoint x="300" y="470" as="sourcePoint" />
            <mxPoint x="410" y="350" as="targetPoint" />
          </mxGeometry>
        </mxCell>
        <mxCell id="phcHC3TYEVuPcjH7p6bI-19" value="Бронювання житла" style="ellipse;whiteSpace=wrap;html=1;" parent="1" vertex="1">
          <mxGeometry x="380" y="370" width="190" height="50" as="geometry" />
        </mxCell>
        <mxCell id="phcHC3TYEVuPcjH7p6bI-20" value="" style="endArrow=none;html=1;rounded=0;" parent="1" edge="1">
          <mxGeometry width="50" height="50" relative="1" as="geometry">
            <mxPoint x="300" y="490" as="sourcePoint" />
            <mxPoint x="410" y="420" as="targetPoint" />
          </mxGeometry>
        </mxCell>
        <mxCell id="phcHC3TYEVuPcjH7p6bI-21" value="Створення споживчого пакету" style="ellipse;whiteSpace=wrap;html=1;" parent="1" vertex="1">
          <mxGeometry x="380" y="445" width="190" height="50" as="geometry" />
        </mxCell>
        <mxCell id="phcHC3TYEVuPcjH7p6bI-22" value="" style="endArrow=none;html=1;rounded=0;" parent="1" edge="1">
          <mxGeometry width="50" height="50" relative="1" as="geometry">
            <mxPoint x="310" y="500" as="sourcePoint" />
            <mxPoint x="380" y="480" as="targetPoint" />
          </mxGeometry>
        </mxCell>
        <mxCell id="phcHC3TYEVuPcjH7p6bI-23" value="Сервіс оренди" style="shape=umlActor;verticalLabelPosition=bottom;verticalAlign=top;html=1;outlineConnect=0;" parent="1" vertex="1">
          <mxGeometry x="800" y="302.5" width="30" height="60" as="geometry" />
        </mxCell>
        <mxCell id="phcHC3TYEVuPcjH7p6bI-24" value="" style="endArrow=none;html=1;rounded=0;" parent="1" edge="1" target="phcHC3TYEVuPcjH7p6bI-23">
          <mxGeometry width="50" height="50" relative="1" as="geometry">
            <mxPoint x="580" y="390" as="sourcePoint" />
            <mxPoint x="680" y="330" as="targetPoint" />
          </mxGeometry>
        </mxCell>
        <mxCell id="phcHC3TYEVuPcjH7p6bI-25" value="Продуктовий магазин" style="shape=umlActor;verticalLabelPosition=bottom;verticalAlign=top;html=1;outlineConnect=0;" parent="1" vertex="1">
          <mxGeometry x="800" y="427.5" width="30" height="60" as="geometry" />
        </mxCell>
        <mxCell id="phcHC3TYEVuPcjH7p6bI-26" value="" style="endArrow=none;html=1;rounded=0;" parent="1" target="phcHC3TYEVuPcjH7p6bI-25" edge="1">
          <mxGeometry width="50" height="50" relative="1" as="geometry">
            <mxPoint x="580" y="470" as="sourcePoint" />
            <mxPoint x="690" y="340" as="targetPoint" />
          </mxGeometry>
        </mxCell>
        <mxCell id="1m0Ush_nGx7LSZ5EcnVC-1" value="Авторизація в системі" style="ellipse;whiteSpace=wrap;html=1;" vertex="1" parent="1">
          <mxGeometry x="630" y="240" width="140" height="40" as="geometry" />
        </mxCell>
        <mxCell id="1m0Ush_nGx7LSZ5EcnVC-2" value="&amp;lt;&amp;lt;include&amp;gt;&amp;gt;" style="html=1;verticalAlign=bottom;labelBackgroundColor=none;endArrow=open;endFill=0;dashed=1;rounded=0;exitX=1;exitY=0.5;exitDx=0;exitDy=0;entryX=0;entryY=0.5;entryDx=0;entryDy=0;" edge="1" parent="1" source="phcHC3TYEVuPcjH7p6bI-9" target="1m0Ush_nGx7LSZ5EcnVC-1">
          <mxGeometry width="160" relative="1" as="geometry">
            <mxPoint x="340" y="330" as="sourcePoint" />
            <mxPoint x="500" y="330" as="targetPoint" />
            <Array as="points">
              <mxPoint x="600" y="230" />
            </Array>
          </mxGeometry>
        </mxCell>
      </root>
    </mxGraphModel>
  </diagram>
</mxfile>
